<svg xmlns="http://www.w3.org/2000/svg" viewBox="0 0 100 100" width="100" height="100">
  <defs>
    <linearGradient id="aiadmkFlag" x1="0%" y1="0%" x2="0%" y2="100%">
      <stop offset="0%" stop-color="#111827"/>
      <stop offset="35%" stop-color="#111827"/>
      <stop offset="35%" stop-color="#ffffff"/>
      <stop offset="65%" stop-color="#ffffff"/>
      <stop offset="65%" stop-color="#e11d48"/>
      <stop offset="100%" stop-color="#e11d48"/>
    </linearGradient>
  </defs>
  <!-- Background Badge -->
  <circle cx="50" cy="50" r="48" fill="#ffffff" stroke="#e2e8f0" stroke-width="2"/>
  <!-- Two Green Leaves Motif (இரட்டை இலை) -->
  <!-- Left Leaf -->
  <path d="M 50 58 C 44 48, 22 46, 26 28 C 36 28, 48 38, 50 58 Z" fill="#16a34a" stroke="#15803d" stroke-width="1.5"/>
  <path d="M 32 34 Q 40 44, 50 58" stroke="#86efac" stroke-width="1.5" fill="none"/>
  <!-- Right Leaf -->
  <path d="M 50 58 C 56 48, 78 46, 74 28 C 64 28, 52 38, 50 58 Z" fill="#22c55e" stroke="#15803d" stroke-width="1.5"/>
  <path d="M 68 34 Q 60 44, 50 58" stroke="#bbf7d0" stroke-width="1.5" fill="none"/>
  <!-- Stem -->
  <path d="M 50 58 Q 50 68, 48 72" stroke="#15803d" stroke-width="3" stroke-linecap="round" fill="none"/>
  <!-- Flag Badge at bottom -->
  <g transform="translate(18, 76)">
    <rect width="64" height="14" rx="4" fill="url(#aiadmkFlag)" stroke="#cbd5e1" stroke-width="1"/>
    <text x="32" y="10.5" text-anchor="middle" fill="#111827" font-family="sans-serif" font-size="8" font-weight="900" letter-spacing="1">AIADMK</text>
  </g>
</svg>